PathFileType	3	(X/Y/Z)	F:\ViconData\AntennenMessung\Messung1\Session1\ID14.trc
DataRate	CameraRate	NumFrames	NumMarkers	Units	OrigDataRate	OrigDataStartFrame	OrigNumFrames
120.0	120.0	4	70	mm	120.0	728	1940	
Frame#	Time	Ashort			Along			Atop			A4			Bshort			Blong			Btop			B4			Cshort			Clong			Ctop			C4			Dshort			Dlong			Dtop			D4			Eshort			Elong			Etop			E4			Fshort			Flong			Ftop			F4			Gshort			Glong			Gtop			G4			Hshort			Hlong			Htop			H4			I1			I2			I3			I4			I5			WandAshort			WandAlong			WandAtop			WandA4			WandA15			WandBshort			WandB4			WandB5			WandBtop			WandBlong			WandCshort			WandClong			WandCtop			WandC4			WandC5			Acenter			Aantenna			Bcenter			Bantenna			Ccenter			Cantenna			Dcenter			Dantenna			Ecenter			Eantenna			Fcenter			Fantenna			Gcenter			Gantenna			Hcenter			Hantenna			Icenter			Iantenna			
		X1	Y1	Z1	X2	Y2	Z2	X3	Y3	Z3	X4	Y4	Z4	X5	Y5	Z5	X6	Y6	Z6	X7	Y7	Z7	X8	Y8	Z8	X9	Y9	Z9	X10	Y10	Z10	X11	Y11	Z11	X12	Y12	Z12	X13	Y13	Z13	X14	Y14	Z14	X15	Y15	Z15	X16	Y16	Z16	X17	Y17	Z17	X18	Y18	Z18	X19	Y19	Z19	X20	Y20	Z20	X21	Y21	Z21	X22	Y22	Z22	X23	Y23	Z23	X24	Y24	Z24	X25	Y25	Z25	X26	Y26	Z26	X27	Y27	Z27	X28	Y28	Z28	X29	Y29	Z29	X30	Y30	Z30	X31	Y31	Z31	X32	Y32	Z32	X33	Y33	Z33	X34	Y34	Z34	X35	Y35	Z35	X36	Y36	Z36	X37	Y37	Z37	X38	Y38	Z38	X39	Y39	Z39	X40	Y40	Z40	X41	Y41	Z41	X42	Y42	Z42	X43	Y43	Z43	X44	Y44	Z44	X45	Y45	Z45	X46	Y46	Z46	X47	Y47	Z47	X48	Y48	Z48	X49	Y49	Z49	X50	Y50	Z50	X51	Y51	Z51	X52	Y52	Z52	X53	Y53	Z53	X54	Y54	Z54	X55	Y55	Z55	X56	Y56	Z56	X57	Y57	Z57	X58	Y58	Z58	X59	Y59	Z59	X60	Y60	Z60	X61	Y61	Z61	X62	Y62	Z62	X63	Y63	Z63	X64	Y64	Z64	X65	Y65	Z65	X66	Y66	Z66	X67	Y67	Z67	X68	Y68	Z68	X69	Y69	Z69	X70	Y70	Z70	
728	6.0583333	-1038.2134	214.61899	-1644.0902	-1109.3651	204.22691	-1599.4198	-1063.5226	172.89635	-1625.8861	-1054.1257	262.30695	-1634.8792	-1352.6609	235.09563	1003.5942	-1281.397	227.35281	1052.2632	-1322.7178	193.94577	1020.851	-1284.3811	287.95438	1052.6849	813.90533	187.69788	1209.5026	892.31226	178.50273	1179.0756	844.55682	145.42542	1198.3464	860.97504	292.37823	1168.2285	1115.9122	210.06239	-1401.8008	1056.3545	194.16156	-1460.2026	1095.3196	162.629	-1423.7332	1069.7694	238.88319	-1425.8683	-1204.5885	1686.061	-1563.1279	-1129.1531	1688.3778	-1606.261	-1173.1559	1724.4685	-1581.9441	-1134.0103	1581.0537	-1603.8284	-1239.5404	1699.0238	1119.4346	-1309.2567	1698.6897	1071.9191	-1270.4155	1736.2461	1096.8834	-1245.5839	1592.7484	1110.6904	988.79755	1664.1919	1162.1754	957.20782	1700.5885	1183.7728	921.7843	1662.3279	1214.8107	939.87555	1659.4142	1159.7991	999.1684	1668.4366	-1579.3512	1058.6901	1670.0355	-1518.7262	1025.0856	1708.0765	-1551.1368	1059.3551	1672.1565	-1585.3956	-238.10768	1170.4526	-194.642	-153.37433	1173.0273	-193.83829	-201.05203	1208.8916	-193.90764	-202.27266	1171.264	-162.69949	-200.5761	1172.8444	-241.62903																																														-1068.4729	210.19943	-1625.0927	-1073.6022	248.85191	-1624.2706	-1321.4073	231.69992	1024.9385	-1320.0623	270.45026	1029.1338	848.2063	183.67523	1196.1915	851.90466	222.438	1194.0078	1088.9729	202.87012	-1428.217	1082.9337	241.16267	-1432.484	-1171.9266	1687.0641	-1581.8035	-1170.6458	1648.0853	-1581.657	-1270.995	1698.873	1097.9965	-1271.5992	1659.8949	1099.1573	952.71356	1705.7665	1186.8453	972.74652	1733.9017	1168.7322	1026.5068	1669.1709	-1551.506	1027.9304	1630.1986	-1551.8759	-199.91571	1171.613	-194.27972	-198.72752	1132.6331	-194.66881
729	6.0666667	-1038.2311	214.60571	-1644.0916	-1109.3726	204.20483	-1599.436	-1063.5155	172.9218	-1625.8615	-1054.1134	262.29959	-1634.8718	-1352.7	235.02267	1003.6678	-1281.3708	227.41692	1052.2333	-1322.6962	193.96304	1020.8857	-1284.3396	287.95898	1052.6306	814.04083	187.68488	1209.4988	892.31964	178.51202	1178.9928	844.55798	145.36916	1198.3384	860.99341	292.29379	1168.3752	1115.8853	210.03577	-1401.7916	1056.3518	194.14986	-1460.2159	1095.2892	162.61977	-1423.7362	1069.7449	238.92992	-1425.9072	-1204.6058	1686.0682	-1563.1077	-1129.1395	1688.3656	-1606.2316	-1173.1432	1724.4689	-1581.9557	-1134.0145	1581.0514	-1603.8265	-1239.5508	1699.0293	1119.4514	-1309.3787	1698.8513	1071.9633	-1270.4286	1736.2743	1096.8977	-1245.5974	1592.7764	1110.6868	988.86444	1664.2333	1162.2074	957.26721	1700.5687	1183.7841	921.99878	1662.3151	1214.8018	939.80536	1659.395	1159.7886	999.17487	1668.45	-1579.3607	1058.9244	1670.1578	-1518.6816	1025.0762	1708.0757	-1551.1382	1059.3416	1672.1935	-1585.5055	-238.08458	1170.4401	-194.6364	-153.36505	1173.0312	-193.86055	-201.06506	1208.895	-193.90808	-202.28249	1171.2722	-162.7037	-200.59117	1172.8605	-241.6575																																														-1068.4856	210.18251	-1625.1007	-1073.641	248.83221	-1624.3118	-1321.4412	231.68958	1024.9507	-1320.152	270.44394	1029.1265	848.20764	183.68114	1196.1835	851.90039	222.44466	1194.0032	1088.9547	202.84962	-1428.2202	1082.925	241.14357	-1432.4884	-1171.9103	1687.0635	-1581.7908	-1170.6257	1648.085	-1581.6191	-1271.0862	1698.9489	1098.0048	-1271.7732	1659.972	1099.1609	952.79932	1705.7063	1186.835	972.78186	1733.8577	1168.6907	1026.5817	1669.2333	-1551.5273	1028.0922	1630.2645	-1551.918	-199.92117	1171.6073	-194.2869	-198.72539	1132.6276	-194.68291
730	6.075	-1038.2041	214.63832	-1644.1144	-1109.4231	204.19104	-1599.3716	-1063.514	172.91214	-1625.8402	-1054.16	262.2876	-1634.9656	-1352.7362	234.98586	1003.5947	-1281.3793	227.3604	1052.2279	-1322.7241	193.96977	1020.8629	-1284.4541	287.9646	1052.7112	813.9101	187.74876	1209.4792	892.22583	178.47528	1179.0729	844.53076	145.4339	1198.3057	860.93799	292.35187	1168.1852	1115.8358	209.74431	-1401.666	1056.3685	194.18008	-1460.2269	1095.5378	162.8631	-1423.707	1069.7418	238.9173	-1425.8984	-1204.6017	1686.0898	-1563.1036	-1129.1385	1688.3575	-1606.2552	-1173.1548	1724.4618	-1581.9547	-1134.007	1581.0579	-1603.8431	-1239.567	1699.0266	1119.4415	-1308.4745	1699.5824	1070.4583	-1270.3781	1736.1918	1096.8662	-1245.5643	1592.7275	1110.6686	988.80017	1664.1881	1162.177	957.27557	1700.5349	1183.7922	921.76416	1662.3589	1214.8059	939.83301	1659.4087	1159.8184	999.17657	1668.4395	-1579.3766	1058.6794	1670.0333	-1518.7305	1025.0762	1708.0669	-1551.1261	1059.3484	1672.2046	-1585.4979	-238.0835	1170.42	-194.63304	-153.36899	1173.0414	-193.86246	-201.06187	1208.8932	-193.90721	-202.29451	1171.2693	-162.70934	-200.5753	1172.8505	-241.6516																																														-1068.5043	210.1935	-1625.0784	-1073.6774	248.84081	-1624.2887	-1321.458	231.64334	1024.9122	-1320.1555	270.39835	1029.0779	848.22552	183.68539	1196.156	851.96942	222.44414	1193.9779	1089.2084	202.77521	-1427.8875	1083.1324	241.0894	-1431.9005	-1171.9336	1687.0715	-1581.7841	-1170.6606	1648.0928	-1581.6062	-1270.8936	1699.2792	1097.1727	-1271.4384	1660.2843	1097.4966	952.71729	1705.7904	1186.9176	972.77521	1733.9346	1168.8459	1026.5134	1669.1716	-1551.5143	1027.9537	1630.2002	-1551.9032	-199.90454	1171.6014	-194.28574	-198.69485	1132.6221	-194.68141
731	6.0833333	-1038.2334	214.63673	-1644.1123	-1109.406	204.22272	-1599.3723	-1063.4979	172.94606	-1625.8744	-1054.1725	262.26688	-1634.8678	-1352.7537	235.07138	1003.567	-1281.3445	227.439	1052.1831	-1322.6912	193.97684	1020.8627	-1284.4877	287.94629	1052.7203	813.99994	187.73091	1209.5532	892.34644	178.59882	1178.9752	844.54834	145.36926	1198.3904	860.98175	292.39575	1168.2495	1115.889	210.04877	-1401.8002	1056.3502	194.17389	-1460.2354	1095.2894	162.61816	-1423.7681	1069.7467	238.95494	-1425.9028	-1204.6108	1686.0847	-1563.0885	-1129.1543	1688.3461	-1606.2469	-1173.1455	1724.4677	-1581.9648	-1134.0083	1581.0726	-1603.8699	-1239.5743	1699.0487	1119.454	-1309.3528	1698.8025	1071.9446	-1270.3832	1736.2119	1096.8654	-1245.5455	1592.7198	1110.6746	988.85248	1664.2313	1162.1904	957.3208	1700.51	1183.8132	922.34082	1662.0776	1214.8472	939.82654	1659.4026	1159.8215	999.16858	1668.4545	-1579.384	1058.886	1670.048	-1518.7505	1025.0752	1708.0708	-1551.1158	1059.3447	1672.1996	-1585.4883	-238.07956	1170.4094	-194.6395	-153.37096	1173.0133	-193.85345	-201.05817	1208.892	-193.9091	-202.28065	1171.2363	-162.7083	-200.5688	1172.8611	-241.6548																																														-1068.468	210.21278	-1625.1063	-1073.6226	248.86243	-1624.3101	-1321.4098	231.72127	1024.9061	-1320.0941	270.47733	1029.058	848.17297	183.74768	1196.2157	851.83423	222.51326	1194.0193	1088.9485	202.86559	-1428.2411	1082.9153	241.16029	-1432.4974	-1171.922	1687.0643	-1581.7853	-1170.6469	1648.0856	-1581.5983	-1271.0432	1698.9376	1098.028	-1271.7333	1659.9626	1099.2437	953.01031	1705.4692	1186.769	972.91278	1733.6276	1168.5481	1026.5681	1669.1855	-1551.5641	1028.064	1630.2168	-1552.0133	-199.90781	1171.5828	-194.28528	-198.70596	1132.6033	-194.67828
